<svg xmlns="http://www.w3.org/2000/svg" viewBox="0 0 732.13 464.59"><defs><style>.cls-1{fill:none;stroke:#000;stroke-miterlimit:10;stroke-width:2px;}.cls-2{font-size:6px;}.cls-10,.cls-12,.cls-2{font-family:Roboto-Regular, Roboto;}.cls-3{letter-spacing:-0.05em;}.cls-4{letter-spacing:-0.02em;}.cls-5{letter-spacing:0.01em;}.cls-6{letter-spacing:-0.01em;}.cls-7{letter-spacing:-0.01em;}.cls-8{letter-spacing:-0.02em;}.cls-9{letter-spacing:0.02em;}.cls-10,.cls-12{font-size:7px;}.cls-10{letter-spacing:-0.01em;}.cls-11{letter-spacing:0em;}.cls-13{letter-spacing:-0.01em;}</style></defs><g id="Layer_2" data-name="Layer 2"><rect class="cls-1" x="547.96" y="12.13" width="30.32" height="66.69"/><rect class="cls-1" x="517.64" y="12.13" width="30.32" height="66.69"/><rect class="cls-1" x="458.53" y="12.13" width="59.12" height="66.69"/><rect class="cls-1" x="399.41" y="12.13" width="59.12" height="66.69"/><rect class="cls-1" x="340.29" y="12.13" width="59.12" height="66.69"/><rect class="cls-1" x="281.18" y="12.13" width="59.12" height="66.69"/><rect class="cls-1" x="222.06" y="12.13" width="59.12" height="66.69"/><rect class="cls-1" x="200.46" y="12.13" width="21.6" height="66.69"/><rect class="cls-1" x="141.35" y="12.13" width="59.12" height="66.69"/><rect class="cls-1" x="82.23" y="12.13" width="59.12" height="66.69"/><rect class="cls-1" x="11.37" y="12.13" width="62.15" height="55.71"/><rect class="cls-1" x="11.37" y="67.83" width="62.15" height="55.71"/><rect class="cls-1" x="11.37" y="123.54" width="55.71" height="31.83"/><rect class="cls-1" x="11.37" y="155.37" width="62.15" height="60.25"/><rect class="cls-1" x="11.37" y="215.62" width="62.15" height="60.25"/><rect class="cls-1" x="11.37" y="275.87" width="70.86" height="118.61"/><rect class="cls-1" x="11.37" y="394.48" width="158.02" height="52.29"/><rect class="cls-1" x="517.64" y="95.49" width="30.32" height="66.69"/><rect class="cls-1" x="547.96" y="95.49" width="30.32" height="66.69"/><rect class="cls-1" x="458.53" y="95.49" width="59.12" height="66.69"/><rect class="cls-1" x="200.46" y="95.49" width="139.83" height="66.69"/><rect class="cls-1" x="399.41" y="95.49" width="59.12" height="66.69"/><rect class="cls-1" x="118.79" y="162.19" width="71.62" height="33.35"/><rect class="cls-1" x="578.27" y="12.13" width="4.55" height="29.37"/><rect class="cls-1" x="582.82" y="12.13" width="7.96" height="29.37"/><rect class="cls-1" x="586.23" y="49.45" width="4.55" height="29.37"/><rect class="cls-1" x="578.27" y="49.45" width="7.96" height="29.37"/><rect class="cls-1" x="578.27" y="41.49" width="12.51" height="7.96"/><rect class="cls-1" x="586.23" y="95.49" width="4.55" height="29.37" transform="translate(1177.01 220.36) rotate(-180)"/><rect class="cls-1" x="578.27" y="95.49" width="7.96" height="29.37" transform="translate(1164.51 220.36) rotate(-180)"/><rect class="cls-1" x="578.27" y="132.82" width="4.55" height="29.37" transform="translate(1161.09 295.01) rotate(-180)"/><rect class="cls-1" x="582.82" y="132.82" width="7.96" height="29.37" transform="translate(1173.6 295.01) rotate(-180)"/><rect class="cls-1" x="578.27" y="124.86" width="12.51" height="7.96" transform="translate(1169.05 257.68) rotate(-180)"/><rect class="cls-1" x="340.29" y="95.49" width="17.43" height="24.76"/><rect class="cls-1" x="381.98" y="95.49" width="17.43" height="24.76"/><rect class="cls-1" x="381.98" y="133.14" width="17.43" height="29.05"/><rect class="cls-1" x="340.29" y="133.14" width="17.43" height="29.05"/><rect class="cls-1" x="357.73" y="133.14" width="24.25" height="29.05"/><line class="cls-1" x1="82.23" y1="162.19" x2="82.23" y2="275.87"/><rect class="cls-1" x="82.23" y="275.87" width="19.71" height="118.61"/><line class="cls-1" x1="118.79" y1="162.19" x2="81.28" y2="162.19"/><line class="cls-1" x1="200.46" y1="162.19" x2="200.46" y2="196.48"/><line class="cls-1" x1="190.41" y1="195.54" x2="200.46" y2="195.54"/><rect class="cls-1" x="73.52" y="12.13" width="8.72" height="36.76"/><rect class="cls-1" x="547.96" y="12.13" width="30.32" height="33.35"/><rect class="cls-1" x="547.96" y="95.49" width="30.32" height="33.35"/><rect class="cls-1" x="517.64" y="95.49" width="30.32" height="33.35"/><rect class="cls-1" x="590.78" y="12.13" width="129.98" height="150.06"/></g><g id="Layer_4" data-name="Layer 4"><text class="cls-2" transform="translate(462.98 29.29)">Principal<tspan class="cls-3" x="23.26" y="0">’</tspan><tspan x="24.13" y="0">s Office</tspan><tspan x="0" y="7.2">Regist</tspan><tspan class="cls-4" x="16.75" y="7.2">r</tspan><tspan x="18.66" y="7.2">a</tspan><tspan class="cls-5" x="21.93" y="7.2">r</tspan><tspan class="cls-3" x="24" y="7.2">’</tspan><tspan x="24.87" y="7.2">s Office</tspan></text><text class="cls-2" transform="translate(463.48 113.34)">Finance Office</text><text class="cls-2" transform="translate(404.3 28.29)">Learning <tspan x="0" y="7.2">Resou</tspan><tspan class="cls-6" x="16.7" y="7.2">r</tspan><tspan x="18.67" y="7.2">ces Center</tspan></text><text class="cls-2" transform="translate(403.84 113.4)">School Clinic</text><text class="cls-2" transform="translate(551.04 28.29)">Di<tspan class="cls-6" x="5.39" y="0">r</tspan><tspan x="7.37" y="0">ec</tspan><tspan class="cls-7" x="13.68" y="0">t</tspan><tspan x="15.59" y="0">o</tspan><tspan class="cls-5" x="19.01" y="0">r</tspan><tspan class="cls-3" x="21.08" y="0">’</tspan><tspan x="21.96" y="0">s</tspan><tspan x="0" y="7.2">Office</tspan></text><text class="cls-2" transform="translate(551.04 59.93)">GSU &amp;<tspan x="0" y="7.2">MIS </tspan><tspan x="0" y="14.4">Office</tspan></text><text class="cls-2" transform="translate(522.12 110.18)">MRD</text><text class="cls-2" transform="translate(552.12 110.18)">Printing<tspan x="0" y="7.2">Office</tspan></text><text class="cls-2" transform="translate(521.54 146.75)">Pilgrim<tspan x="0" y="7.2">Center</tspan></text><text class="cls-2" transform="translate(205.94 113.46)">School Canteen 1</text><text class="cls-2" transform="translate(123.63 178.86)"><tspan class="cls-8">F</tspan><tspan x="3.22" y="0">aculty Room 1</tspan></text><text class="cls-2" transform="translate(16.7 133.14)">Comfo<tspan class="cls-9" x="18.09" y="0">r</tspan><tspan x="20.27" y="0">t Rooms</tspan></text><text class="cls-2" transform="translate(596.58 21.77)">Bamboo A<tspan class="cls-6" x="27.87" y="0">r</tspan><tspan x="29.84" y="0">ea</tspan></text><text class="cls-10" transform="translate(16.7 406.75)">P<tspan class="cls-11" x="4.38" y="0">arish Center 1</tspan></text><text class="cls-12" transform="translate(81.28 91.78)"><tspan class="cls-13">F</tspan><tspan x="3.79" y="0">unction Hall</tspan></text></g><g id="Layer_3" data-name="Layer 3"><text class="cls-12" transform="translate(551.04 21.77)">100a</text><text class="cls-12" transform="translate(550.46 54.45)">100b</text><text class="cls-12" transform="translate(551.54 104.44)">101</text><text class="cls-12" transform="translate(521.54 104.37)">103a</text><text class="cls-12" transform="translate(520.96 138.75)">103b</text><text class="cls-12" transform="translate(521.54 21.84)">102</text><text class="cls-12" transform="translate(462.4 21.84)">104</text><text class="cls-12" transform="translate(462.98 105.57)">105</text><text class="cls-12" transform="translate(403.72 21.91)">106</text><text class="cls-12" transform="translate(403.26 105.64)">107</text><text class="cls-12" transform="translate(344.69 21.98)">108</text><text class="cls-12" transform="translate(285.78 22.05)">109</text><text class="cls-12" transform="translate(225.91 21.77)">111</text><text class="cls-12" transform="translate(205.36 106.84)">110a &amp; 110b</text><text class="cls-12" transform="translate(203.39 21.77)">112</text><text class="cls-12" transform="translate(145.41 21.84)">113</text><text class="cls-12" transform="translate(86.4 21.84)">115</text><text class="cls-12" transform="translate(16.12 21.77)">116</text><text class="cls-12" transform="translate(16.7 77.55)">117</text><text class="cls-12" transform="translate(16.12 166.91)">118</text><text class="cls-12" transform="translate(16.7 226.48)">119</text><text class="cls-12" transform="translate(123.05 172.1)">114</text></g></svg>