<svg xmlns="http://www.w3.org/2000/svg" viewBox="0 0 732.13 464.59"><defs><style>.cls-1{fill:none;stroke:#000;stroke-miterlimit:10;stroke-width:2px;}.cls-2{font-size:6px;}.cls-2,.cls-8{font-family:Roboto-Regular, Roboto;}.cls-3{letter-spacing:-0.02em;}.cls-4{letter-spacing:0.02em;}.cls-5{letter-spacing:-0.02em;}.cls-6{letter-spacing:-0.01em;}.cls-7{letter-spacing:-0.01em;}.cls-8{font-size:7px;}.cls-9{letter-spacing:0.01em;}.cls-10{letter-spacing:-0.01em;}.cls-11{letter-spacing:0.01em;}.cls-12{letter-spacing:0em;}</style></defs><g id="Layer_2" data-name="Layer 2"><rect class="cls-1" x="547.96" y="12.13" width="30.32" height="66.69"/><rect class="cls-1" x="517.64" y="12.13" width="30.32" height="66.69"/><rect class="cls-1" x="458.53" y="12.13" width="59.12" height="66.69"/><rect class="cls-1" x="399.41" y="12.13" width="59.12" height="66.69"/><rect class="cls-1" x="340.29" y="12.13" width="59.12" height="66.69"/><rect class="cls-1" x="281.18" y="12.13" width="59.12" height="66.69"/><rect class="cls-1" x="222.06" y="12.13" width="59.12" height="66.69"/><rect class="cls-1" x="200.46" y="12.13" width="21.6" height="66.69"/><rect class="cls-1" x="141.35" y="12.13" width="59.12" height="66.69"/><rect class="cls-1" x="82.23" y="12.13" width="59.12" height="66.69"/><rect class="cls-1" x="11.37" y="12.13" width="55.71" height="84.88"/><rect class="cls-1" x="11.37" y="97.01" width="55.71" height="26.53"/><rect class="cls-1" x="11.37" y="123.54" width="55.71" height="31.83"/><rect class="cls-1" x="11.37" y="155.37" width="62.15" height="60.25"/><rect class="cls-1" x="11.37" y="215.62" width="62.15" height="60.25"/><rect class="cls-1" x="11.37" y="394.48" width="158.02" height="52.29"/><rect class="cls-1" x="517.64" y="95.49" width="60.63" height="66.69"/><rect class="cls-1" x="458.53" y="95.49" width="59.12" height="66.69"/><rect class="cls-1" x="281.18" y="95.49" width="59.12" height="66.69"/><rect class="cls-1" x="399.41" y="95.49" width="59.12" height="66.69"/><rect class="cls-1" x="578.27" y="12.13" width="4.55" height="29.37"/><rect class="cls-1" x="582.82" y="12.13" width="7.96" height="29.37"/><rect class="cls-1" x="586.23" y="49.45" width="4.55" height="29.37"/><rect class="cls-1" x="578.27" y="49.45" width="7.96" height="29.37"/><rect class="cls-1" x="578.27" y="41.49" width="12.51" height="7.96"/><rect class="cls-1" x="586.23" y="95.49" width="4.55" height="29.37" transform="translate(1177.01 220.36) rotate(-180)"/><rect class="cls-1" x="578.27" y="95.49" width="7.96" height="29.37" transform="translate(1164.51 220.36) rotate(-180)"/><rect class="cls-1" x="578.27" y="132.82" width="4.55" height="29.37" transform="translate(1161.09 295.01) rotate(-180)"/><rect class="cls-1" x="582.82" y="132.82" width="7.96" height="29.37" transform="translate(1173.6 295.01) rotate(-180)"/><rect class="cls-1" x="578.27" y="124.86" width="12.51" height="7.96" transform="translate(1169.05 257.68) rotate(-180)"/><rect class="cls-1" x="340.29" y="95.49" width="17.43" height="24.76"/><rect class="cls-1" x="381.98" y="95.49" width="17.43" height="24.76"/><rect class="cls-1" x="381.98" y="133.14" width="17.43" height="29.05"/><rect class="cls-1" x="340.29" y="133.14" width="17.43" height="29.05"/><rect class="cls-1" x="357.73" y="133.14" width="24.25" height="29.05"/><line class="cls-1" x1="82.23" y1="162.19" x2="82.23" y2="275.87"/><rect class="cls-1" x="82.23" y="275.87" width="19.71" height="118.61"/><line class="cls-1" x1="118.79" y1="162.19" x2="81.28" y2="162.19"/><rect class="cls-1" x="73.52" y="12.13" width="8.72" height="36.76"/><rect class="cls-1" x="67.07" y="12.13" width="6.44" height="36.76"/><rect class="cls-1" x="141.35" y="95.49" width="59.12" height="66.69"/><rect class="cls-1" x="82.23" y="95.49" width="59.12" height="66.69"/><rect class="cls-1" x="222.06" y="95.49" width="59.12" height="66.69"/><rect class="cls-1" x="200.46" y="95.49" width="21.6" height="66.69"/><rect class="cls-1" x="11.37" y="275.87" width="62.15" height="60.25"/><rect class="cls-1" x="11.37" y="336.13" width="62.15" height="58.36"/></g><g id="Layer_4" data-name="Layer 4"><text class="cls-2" transform="translate(521.54 29.29)"><tspan class="cls-3">F</tspan><tspan x="3.22" y="0">aculty</tspan><tspan x="0" y="7.2">Room 3</tspan></text><text class="cls-2" transform="translate(550.46 20.56)">Comfo<tspan class="cls-4" x="18.09" y="0">r</tspan><tspan x="20.27" y="0">t</tspan><tspan x="0" y="7.2">Rooms</tspan></text><text class="cls-2" transform="translate(202.39 113.46)">P<tspan class="cls-5" x="3.79" y="0">r</tspan><tspan class="cls-6" x="5.7" y="0">a</tspan><tspan class="cls-7" x="8.92" y="0">y</tspan><tspan x="11.72" y="0">er</tspan><tspan x="0" y="7.2">Room</tspan></text><text class="cls-2" transform="translate(16.7 133.14)">Comfo<tspan class="cls-4" x="18.09" y="0">r</tspan><tspan x="20.27" y="0">t Rooms</tspan></text><text class="cls-8" transform="translate(16.7 413.75)">Chemist<tspan class="cls-9" x="25.85" y="0">r</tspan><tspan x="28.28" y="0">y &amp; Biology Labo</tspan><tspan class="cls-5" x="79.61" y="0">r</tspan><tspan x="81.85" y="0">a</tspan><tspan class="cls-10" x="85.65" y="0">t</tspan><tspan x="87.87" y="0">o</tspan><tspan class="cls-11" x="91.86" y="0">r</tspan><tspan class="cls-12" x="94.29" y="0">y</tspan></text><text class="cls-2" transform="translate(202.89 28.29)">CCF<tspan x="0" y="7.2">Office</tspan></text><text class="cls-2" transform="translate(87.3 113.46)">Speech<tspan x="0" y="7.2">Labo</tspan><tspan class="cls-5" x="13.28" y="7.2">r</tspan><tspan x="15.19" y="7.2">a</tspan><tspan class="cls-10" x="18.46" y="7.2">t</tspan><tspan x="20.36" y="7.2">o</tspan><tspan class="cls-11" x="23.78" y="7.2">r</tspan><tspan x="25.86" y="7.2">y</tspan></text><text class="cls-2" transform="translate(17.12 113.46)">Student Affairs<tspan x="0" y="7.2">Office</tspan></text></g><g id="Layer_3" data-name="Layer 3"><text class="cls-8" transform="translate(522.12 105.71)">301</text><text class="cls-8" transform="translate(521.54 21.84)">302</text><text class="cls-8" transform="translate(462.4 21.84)">304</text><text class="cls-8" transform="translate(462.98 105.57)">303</text><text class="cls-8" transform="translate(403.72 21.91)">306</text><text class="cls-8" transform="translate(403.26 105.64)">305</text><text class="cls-8" transform="translate(344.69 21.98)">307</text><text class="cls-8" transform="translate(285.78 22.05)">309</text><text class="cls-8" transform="translate(225.91 21.77)">311</text><text class="cls-8" transform="translate(203.39 105.57)">312b</text><text class="cls-8" transform="translate(203.39 21.77)">312a</text><text class="cls-8" transform="translate(145.41 21.84)">314</text><text class="cls-8" transform="translate(86.4 21.84)">316</text><text class="cls-8" transform="translate(16.12 21.77)">317</text><text class="cls-8" transform="translate(17.05 107.54)">318</text><text class="cls-8" transform="translate(16.12 166.91)">319</text><text class="cls-8" transform="translate(16.7 226.48)">320</text><text class="cls-8" transform="translate(225.91 105.78)">310</text><text class="cls-8" transform="translate(285.78 105.57)">308</text><text class="cls-8" transform="translate(145.73 105.85)">313</text><text class="cls-8" transform="translate(86.98 105.64)">315</text><text class="cls-8" transform="translate(16.7 287.1)">321</text><text class="cls-8" transform="translate(17.28 347.88)">322</text><text class="cls-8" transform="translate(17.02 405.75)">323</text></g></svg>